<svg width="50" height="50" viewBox="0 0 50 50" fill="none" xmlns="http://www.w3.org/2000/svg">
<path id="CLOCK" fill-rule="evenodd" clip-rule="evenodd" d="M50 35.8631C47.2493 42.2584 41.9119 47.3699 35.2372 49.9999V48.1162C40.9184 45.6862 45.4927 41.306 48.0342 35.8631H50ZM25.0054 6.10352e-05L24.9461 0L24.8867 6.10352e-05H25.0054ZM14.0817 2.17298C7.76024 4.82926 2.69981 9.73273 0 15.8293H1.97553C4.45087 10.6843 8.75161 6.51254 14.0817 4.0771V2.17298ZM25.0838 47.0611C37.2438 47.0611 47.1014 37.6107 47.1014 25.9531C47.1014 14.2954 37.2438 4.84506 25.0838 4.84506C12.9238 4.84506 3.06611 14.2954 3.06611 25.9531C3.06611 37.6107 12.9238 47.0611 25.0838 47.0611ZM25.084 45.1908C36.1666 45.1908 45.1508 36.5778 45.1508 25.9531C45.1508 15.3284 36.1666 6.71543 25.084 6.71543C14.0015 6.71543 5.01728 15.3284 5.01728 25.9531C5.01728 36.5778 14.0015 45.1908 25.084 45.1908ZM25.92 10.7231H24.2477V23.9708C23.4306 24.2879 22.8542 25.0559 22.8542 25.9529C22.8542 27.1335 23.8524 28.0905 25.0838 28.0905C25.3702 28.0905 25.644 28.0387 25.8955 27.9444L32.8026 34.4369L33.9733 33.2921L27.1118 26.8425C27.2413 26.5716 27.3135 26.2704 27.3135 25.9529C27.3135 25.0559 26.7371 24.2879 25.92 23.9708V10.7231Z" fill="#8FB4C9"/>
</svg>
